<svg width="24" height="24" viewBox="0 0 24 24" fill="none" xmlns="http://www.w3.org/2000/svg">
<path d="M19.5 1.875H6.75C5.85489 1.875 4.99645 2.23058 4.36351 2.86351C3.73058 3.49645 3.375 4.35489 3.375 5.25V21C3.375 21.2984 3.49353 21.5845 3.7045 21.7955C3.91548 22.0065 4.20163 22.125 4.5 22.125H18C18.2984 22.125 18.5845 22.0065 18.7955 21.7955C19.0065 21.5845 19.125 21.2984 19.125 21C19.125 20.7016 19.0065 20.4155 18.7955 20.2045C18.5845 19.9935 18.2984 19.875 18 19.875H5.625V19.5C5.625 19.2016 5.74353 18.9155 5.9545 18.7045C6.16548 18.4935 6.45163 18.375 6.75 18.375H19.5C19.7984 18.375 20.0845 18.2565 20.2955 18.0455C20.5065 17.8345 20.625 17.5484 20.625 17.25V3C20.625 2.70163 20.5065 2.41548 20.2955 2.2045C20.0845 1.99353 19.7984 1.875 19.5 1.875ZM18.375 16.125H6.75C6.36669 16.1243 5.98612 16.1896 5.625 16.3181V5.25C5.625 4.95163 5.74353 4.66548 5.9545 4.4545C6.16548 4.24353 6.45163 4.125 6.75 4.125H18.375V16.125Z" fill="white"/>
</svg>
