<svg width="32" height="36" viewBox="0 0 32 36" fill="none" xmlns="http://www.w3.org/2000/svg">
<g clip-path="url(#clip0_12_35)">
<path d="M3.375 2.25C1.51172 2.25 0 3.76172 0 5.625V30.375C0 32.2383 1.51172 33.75 3.375 33.75H28.125C29.9883 33.75 31.5 32.2383 31.5 30.375V5.625C31.5 3.76172 29.9883 2.25 28.125 2.25H3.375ZM13.2676 6.75H25.8001L24.6421 7.65422V9.24982C25.0721 9.30502 25.0266 9.56341 25.0266 9.87258V17.4117C25.0266 17.7608 24.741 18.0466 24.3918 18.0466H24.1581C23.8089 18.0466 23.5232 17.7608 23.5232 17.4117V9.87258C23.5232 9.56264 23.4782 9.30403 23.9115 9.24954V8.24646L20.577 10.9811C20.6155 11.0526 20.652 11.0983 20.6869 11.1583C20.9798 11.677 21.129 12.3218 21.129 13.1102C21.129 13.7143 21.0284 14.2573 20.8242 14.7365C20.621 15.2158 20.3737 15.6073 20.0853 15.9089C19.797 16.2115 19.5077 16.488 19.2184 16.737C18.9292 16.9864 18.682 17.2465 18.4795 17.5166C18.2756 17.7858 18.1739 18.0641 18.1739 18.3525C18.1739 18.6414 18.3058 18.9347 18.5685 19.2305C18.8304 19.5271 19.1525 19.8145 19.5334 20.0984C19.9152 20.3804 20.2961 20.6935 20.6769 21.034C21.0587 21.374 21.3791 21.8117 21.641 22.3433C21.9047 22.8767 22.0365 23.4639 22.0365 24.1094C22.0365 24.9608 21.8194 25.7298 21.3864 26.4142C20.9524 27.0957 20.3866 27.6396 19.6918 28.0384C18.995 28.4398 18.2498 28.7419 17.4552 28.9461C16.6587 29.1484 15.8686 29.25 15.0794 29.25C14.575 29.2498 14.0715 29.2106 13.5732 29.1329C13.0661 29.0541 12.558 28.915 12.0462 28.7191C11.5336 28.5218 11.0794 28.2796 10.6857 27.9885C10.2911 27.7006 9.97341 27.3289 9.72991 26.8762C9.48635 26.4234 9.36541 25.9143 9.36541 25.349C9.36541 24.6784 9.55223 24.0563 9.92672 23.4763C10.3011 22.9004 10.7973 22.4198 11.4144 22.039C12.4911 21.3692 14.1802 20.9554 16.4791 20.7989C15.9536 20.142 15.69 19.5235 15.69 18.9448C15.69 18.6156 15.7759 18.2628 15.9462 17.8819C15.666 17.9215 15.3833 17.9415 15.1003 17.9419C13.8654 17.9419 12.8225 17.5404 11.9756 16.7321C11.1288 15.9249 10.7059 14.9148 10.7059 13.6934C10.7059 13.5657 10.7096 13.453 10.7186 13.3284H5.69981L13.2676 6.75ZM15.474 9.44536C14.6865 9.44536 14.0823 9.72865 13.6612 10.294C13.2402 10.8579 13.0295 11.541 13.0295 12.3434C13.0295 13.0269 13.1449 13.7227 13.3755 14.4322C13.6054 15.1413 13.9818 15.7745 14.5091 16.3324C15.0346 16.8918 15.6461 17.1709 16.341 17.1709C17.1156 17.1709 17.7208 16.9115 18.1548 16.3924C18.5868 15.8742 18.8037 15.2201 18.8037 14.4321C18.8037 13.7611 18.6894 13.0585 18.4596 12.3237C18.2307 11.5881 17.849 10.9244 17.3161 10.3335C16.7851 9.7406 16.1698 9.44536 15.474 9.44536ZM16.776 21.5447C16.211 21.5447 15.6552 21.5948 15.1096 21.6945C14.564 21.7915 14.0257 21.9554 13.4947 22.1866C12.9618 22.4165 12.5315 22.7544 12.2037 23.2012C11.8742 23.6474 11.7101 24.173 11.7101 24.7778C11.7101 25.354 11.855 25.868 12.1443 26.3157C12.4327 26.7606 12.8135 27.1091 13.2869 27.3586C13.7602 27.6085 14.2564 27.7971 14.7746 27.9211C15.2937 28.0442 15.822 28.1084 16.3603 28.1084C17.425 28.1084 18.3414 27.8686 19.1104 27.3892C19.8776 26.9099 20.2622 26.1698 20.2622 25.1709C20.2622 24.9608 20.2329 24.7538 20.1752 24.552C20.1147 24.3478 20.0554 24.173 19.9967 24.0279C19.9382 23.8855 19.8265 23.7138 19.6617 23.5161C19.5388 23.3673 19.4142 23.2199 19.288 23.0739C19.2019 22.9732 19.041 22.8294 18.8038 22.6394C18.5686 22.4486 18.4185 22.3296 18.3516 22.2857H18.3514C18.2855 22.2394 18.1143 22.1144 17.8388 21.9116C17.5632 21.7069 17.4123 21.5984 17.3856 21.5855C17.2409 21.5595 17.0378 21.5447 16.776 21.5447Z" fill="#FF3030"/>
</g>
<defs>
<clipPath id="clip0_12_35">
<rect width="31.5" height="36" fill="white"/>
</clipPath>
</defs>
</svg>
