<svg width="24" height="24" viewBox="0 0 24 24" fill="none" xmlns="http://www.w3.org/2000/svg">
<path d="M18.5 3H16C15.8674 3 15.7402 3.05268 15.6464 3.14645C15.5527 3.24021 15.5 3.36739 15.5 3.5V3.559L19 6.359V3.5C19 3.36739 18.9473 3.24021 18.8536 3.14645C18.7598 3.05268 18.6326 3 18.5 3Z" fill="white"/>
<path fill-rule="evenodd" clip-rule="evenodd" d="M10.75 9.5C10.75 9.16848 10.8817 8.85054 11.1161 8.61612C11.3505 8.3817 11.6685 8.25 12 8.25C12.3315 8.25 12.6495 8.3817 12.8839 8.61612C13.1183 8.85054 13.25 9.16848 13.25 9.5C13.25 9.83152 13.1183 10.1495 12.8839 10.3839C12.6495 10.6183 12.3315 10.75 12 10.75C11.6685 10.75 11.3505 10.6183 11.1161 10.3839C10.8817 10.1495 10.75 9.83152 10.75 9.5V9.5Z" fill="white"/>
<path fill-rule="evenodd" clip-rule="evenodd" d="M20.75 10.96L21.532 11.586C21.6877 11.7073 21.8849 11.7624 22.0809 11.7392C22.2769 11.7161 22.4559 11.6166 22.5791 11.4624C22.7022 11.3082 22.7596 11.1117 22.7388 10.9154C22.718 10.7191 22.6207 10.539 22.468 10.414L14.343 3.91398C13.678 3.38184 12.8517 3.09192 12 3.09192C11.1483 3.09192 10.322 3.38184 9.657 3.91398L1.532 10.414C1.37658 10.5382 1.27689 10.7191 1.25486 10.9169C1.23282 11.1146 1.29025 11.3131 1.4145 11.4685C1.53875 11.6239 1.71966 11.7236 1.91741 11.7456C2.11517 11.7677 2.31358 11.7102 2.469 11.586L3.25 10.96V21.25H2C1.80109 21.25 1.61032 21.329 1.46967 21.4696C1.32902 21.6103 1.25 21.8011 1.25 22C1.25 22.1989 1.32902 22.3897 1.46967 22.5303C1.61032 22.671 1.80109 22.75 2 22.75H22C22.1989 22.75 22.3897 22.671 22.5303 22.5303C22.671 22.3897 22.75 22.1989 22.75 22C22.75 21.8011 22.671 21.6103 22.5303 21.4696C22.3897 21.329 22.1989 21.25 22 21.25H20.75V10.96ZM9.25 9.49998C9.25 8.77063 9.53973 8.07116 10.0555 7.55543C10.5712 7.03971 11.2707 6.74998 12 6.74998C12.7293 6.74998 13.4288 7.03971 13.9445 7.55543C14.4603 8.07116 14.75 8.77063 14.75 9.49998C14.75 10.2293 14.4603 10.9288 13.9445 11.4445C13.4288 11.9602 12.7293 12.25 12 12.25C11.2707 12.25 10.5712 11.9602 10.0555 11.4445C9.53973 10.9288 9.25 10.2293 9.25 9.49998ZM12.05 13.25C12.714 13.25 13.287 13.25 13.746 13.312C14.238 13.378 14.709 13.527 15.091 13.909C15.473 14.291 15.622 14.762 15.688 15.254C15.746 15.684 15.75 16.214 15.75 16.827V21.25H14.25V17C14.25 16.272 14.248 15.8 14.202 15.454C14.158 15.129 14.088 15.027 14.03 14.97C13.973 14.913 13.871 14.842 13.546 14.798C13.199 14.752 12.728 14.75 12 14.75C11.272 14.75 10.8 14.752 10.454 14.798C10.129 14.842 10.027 14.913 9.97 14.97C9.913 15.027 9.842 15.129 9.798 15.454C9.752 15.801 9.75 16.272 9.75 17V21.25H8.25V16.95C8.25 16.286 8.25 15.713 8.312 15.254C8.378 14.762 8.527 14.291 8.909 13.909C9.291 13.527 9.763 13.378 10.254 13.312C10.713 13.25 11.286 13.25 11.951 13.25H12.049H12.05Z" fill="white"/>
<path fill-rule="evenodd" clip-rule="evenodd" d="M10.75 9.5C10.75 9.16848 10.8817 8.85054 11.1161 8.61612C11.3505 8.3817 11.6685 8.25 12 8.25C12.3315 8.25 12.6495 8.3817 12.8839 8.61612C13.1183 8.85054 13.25 9.16848 13.25 9.5C13.25 9.83152 13.1183 10.1495 12.8839 10.3839C12.6495 10.6183 12.3315 10.75 12 10.75C11.6685 10.75 11.3505 10.6183 11.1161 10.3839C10.8817 10.1495 10.75 9.83152 10.75 9.5V9.5Z" fill="white"/>
</svg>
