<svg width="24" height="24" viewBox="0 0 24 24" fill="none" xmlns="http://www.w3.org/2000/svg">
<path d="M7.01718 4.01251C6.96093 4.01251 6.89999 4.01251 6.84374 4.0172C5.25468 4.0547 3.30468 4.51876 0.876556 5.59689V17.0063C3.72656 15.6563 5.87812 15.2672 7.63593 15.4547C8.27812 15.5203 8.86874 15.6656 9.41249 15.8578L7.29843 12.1641C6.89531 12.3281 6.45937 12.4219 5.99999 12.4219C4.11515 12.4219 2.57812 10.8844 2.57812 9.00001C2.57812 7.11564 4.11515 5.57814 5.99999 5.57814C7.88437 5.57814 9.42187 7.11564 9.42187 9.00001C9.42187 10.125 8.87343 11.1235 8.02968 11.7516L10.7156 16.4391C11.0062 16.5891 11.2828 16.7531 11.5547 16.9172V5.52657C10.4672 4.69689 9.20156 4.12032 7.52343 4.02657C7.35937 4.0172 7.19062 4.01251 7.01718 4.01251ZM16.9547 4.01251C16.7812 4.01251 16.6078 4.0172 16.4437 4.02657C14.7656 4.12032 13.5047 4.69689 12.4125 5.52657V16.9172C13.5328 16.2328 14.7609 15.6188 16.3312 15.4547C18.0891 15.2672 20.2453 15.6563 23.0906 17.0063V5.59689C20.6672 4.51876 18.7172 4.0547 17.1281 4.0172C17.0672 4.0172 17.0109 4.01251 16.9547 4.01251ZM5.99999 6.42189C4.57124 6.42189 3.42187 7.57032 3.42187 9.00001C3.42187 10.4297 4.57124 11.5781 5.99999 11.5781C7.42968 11.5781 8.57812 10.4297 8.57812 9.00001C8.57812 7.57032 7.42968 6.42189 5.99999 6.42189ZM6.10781 7.07345H6.23906C5.10937 7.92657 4.60874 9.04689 4.67484 10.3641C3.45328 8.54532 4.73437 7.11095 6.10781 7.07345ZM6.72187 16.2844C5.22187 16.2984 3.35624 16.7438 0.876556 17.9719V19.9641C3.72656 18.6141 5.87812 18.225 7.63593 18.4125C8.50781 18.5063 9.27187 18.7359 9.97031 19.0359C9.74999 19.3219 9.53437 19.6594 9.31874 20.0531H11.8172L10.1297 17.1141C9.35156 16.725 8.52187 16.4297 7.54687 16.3266C7.28437 16.2984 7.00781 16.2844 6.72187 16.2844ZM17.0766 16.2844C16.8516 16.2891 16.6359 16.3031 16.425 16.3266C14.8312 16.4953 13.6312 17.1703 12.4125 17.9391V17.9531C12.1266 17.8641 11.8359 17.8453 11.5547 17.8969L12.7875 20.0531H14.8125C14.5312 19.6688 14.2594 19.3313 13.9828 19.0406C14.6859 18.7359 15.4547 18.5063 16.3312 18.4125C18.0891 18.225 20.2453 18.6141 23.0906 19.9641V17.9719C20.6016 16.7391 18.7266 16.2891 17.2219 16.2844H17.0766Z" fill="white"/>
</svg>
