<svg width="32" height="36" viewBox="0 0 32 36" fill="none" xmlns="http://www.w3.org/2000/svg">
<g clip-path="url(#clip0_12_37)">
<path d="M3.375 2.25C1.51172 2.25 0 3.76172 0 5.625V30.375C0 32.2383 1.51172 33.75 3.375 33.75H28.125C29.9883 33.75 31.5 32.2383 31.5 30.375V5.625C31.5 3.76172 29.9883 2.25 28.125 2.25H3.375ZM22.8657 6.75C23.2613 6.75 23.6202 6.79577 23.9385 6.88922C24.2532 6.98189 24.5355 7.10965 24.7845 7.2732C25.0299 7.43505 25.2423 7.62567 25.4175 7.84146C25.5938 8.05298 25.741 8.28705 25.8554 8.53748C25.8994 8.61659 25.887 8.67952 25.8167 8.72353L24.8394 9.12537C24.7566 9.16952 24.6983 9.14702 24.6523 9.05977C24.433 8.65336 24.2459 8.38638 23.9385 8.19225C23.6274 7.99889 23.3396 7.90713 22.8657 7.90713C22.3505 7.90713 22.1203 8.00958 21.7976 8.2407C21.4774 8.46731 21.2428 8.75229 21.1043 9.18647C21.0765 9.2648 21.0513 9.36197 21.0217 9.47616C20.9974 9.59217 20.9776 9.7342 20.9651 9.90049C20.9524 10.0669 20.9407 10.2728 20.9299 10.5156C20.9228 10.7584 20.9192 11.0532 20.9192 11.3949C20.9192 11.7383 20.9228 12.0332 20.9299 12.2759C20.9407 12.5178 20.9524 12.7238 20.9651 12.8901C20.9776 13.0582 20.9974 13.1995 21.0217 13.3164C21.0513 13.4288 21.0765 13.5257 21.1043 13.6049C21.2428 14.0373 21.4406 14.2739 21.7319 14.4636C22.0196 14.6561 22.3505 14.7946 22.8657 14.7946C23.3234 14.7946 23.7424 14.6642 24.0157 14.4654C24.2864 14.2668 24.5111 14.0042 24.6118 13.6454C24.6559 13.4944 24.7126 13.3064 24.7513 13.0762C24.7863 12.846 24.7864 12.6025 24.7864 12.2662C24.7864 12.2131 24.7566 12.1861 24.7072 12.1861H23.1417C23.0536 12.1861 23.0105 12.143 23.0105 12.0549V11.1576C23.0105 11.0685 23.0536 11.0254 23.1417 11.0254H26.0145C26.1045 11.0254 26.1468 11.0685 26.1468 11.1575V11.9244C26.1468 12.3308 26.1468 12.7077 26.1045 13.0565C26.064 13.4054 26.0092 13.7074 25.94 13.9276C25.7206 14.6174 25.3725 15.1084 24.8394 15.4742C24.3044 15.8429 23.6147 16.0415 22.8657 16.0415C22.0961 16.0415 21.4478 15.8646 20.9192 15.513C20.3896 15.1569 20.0109 14.6344 19.7799 13.9357C19.7355 13.8017 19.7007 13.6647 19.6757 13.5258C19.6487 13.3847 19.6244 13.2201 19.6028 13.0303C19.5803 12.8389 19.5659 12.6141 19.5571 12.3489C19.548 12.0855 19.5444 11.7636 19.5444 11.3949C19.5444 11.0244 19.5481 10.7071 19.5571 10.4428C19.566 10.1775 19.5803 9.94992 19.6028 9.76022C19.6243 9.57143 19.6487 9.40606 19.6757 9.26494C19.7017 9.12291 19.7359 8.98791 19.78 8.85579C20.0111 8.15716 20.3896 7.63207 20.9192 7.27952C21.4478 6.92705 22.0961 6.75 22.8657 6.75ZM12.2011 12.2212C15.2646 12.2212 17.6013 13.6175 17.6013 16.626C17.6013 18.6671 15.99 20.71 13.8142 21.2188C15.1314 23.5567 16.7148 25.6248 17.898 26.9123C18.5939 27.6648 19.5606 28.3373 20.5271 28.3373V29.0343C20.2324 29.17 19.7494 29.25 19.2935 29.25C17.7353 29.25 16.5008 28.6331 15.6935 27.6648C14.8086 26.6451 13.2504 24.4413 11.6121 21.5146C10.7508 21.5146 10.187 21.5146 9.54232 21.4607V25.9456C9.54232 27.6117 9.92004 27.9615 10.6447 28.0668L12.042 28.2573V29.0342C11.3703 29.0082 9.81211 28.955 8.60372 28.955C7.34034 28.955 6.07788 29.0082 5.35317 29.0343V28.2572L6.37291 28.0666C7.07421 27.9337 7.47345 27.6117 7.47345 25.9455V15.3637C7.47345 13.6967 7.07421 13.3766 6.37291 13.2417L5.35324 13.0546V12.2752C6.02304 12.3012 7.09847 12.3012 8.17481 12.3012C9.35437 12.3012 10.6177 12.2212 12.2011 12.2212ZM11.7183 13.4295C10.9927 13.4295 10.1618 13.4295 9.54232 13.4835V20.2226C10.1618 20.281 10.5629 20.3053 11.4765 20.3053C13.8682 20.3053 15.3176 18.882 15.3176 16.76C15.3176 14.613 13.976 13.4295 11.7183 13.4295Z" fill="#1166CA"/>
</g>
<defs>
<clipPath id="clip0_12_37">
<rect width="31.5" height="36" fill="white"/>
</clipPath>
</defs>
</svg>
